<mxfile host="Electron" modified="2023-05-16T22:19:12.844Z" agent="Mozilla/5.0 (Windows NT 10.0; Win64; x64) AppleWebKit/537.36 (KHTML, like Gecko) draw.io/21.2.8 Chrome/112.0.5615.165 Electron/24.2.0 Safari/537.36" etag="rr5NnO6I5JlEO-I5t6Sh" version="21.2.8" type="device">
  <diagram name="Page-1" id="QccmHNiOosgB7OIxbxh-">
    <mxGraphModel dx="1418" dy="828" grid="1" gridSize="10" guides="1" tooltips="1" connect="1" arrows="1" fold="1" page="1" pageScale="1" pageWidth="850" pageHeight="1100" math="0" shadow="0">
      <root>
        <mxCell id="0" />
        <mxCell id="1" parent="0" />
        <mxCell id="F3HwyV3Gs9jkBbudMTh3-1" value="ToDoApp" style="rounded=1;whiteSpace=wrap;html=1;" vertex="1" parent="1">
          <mxGeometry x="365" y="150" width="120" height="60" as="geometry" />
        </mxCell>
        <mxCell id="F3HwyV3Gs9jkBbudMTh3-8" style="edgeStyle=elbowEdgeStyle;rounded=1;orthogonalLoop=1;jettySize=auto;html=1;exitX=0.5;exitY=0;exitDx=0;exitDy=0;elbow=vertical;" edge="1" parent="1" source="F3HwyV3Gs9jkBbudMTh3-2" target="F3HwyV3Gs9jkBbudMTh3-1">
          <mxGeometry relative="1" as="geometry" />
        </mxCell>
        <mxCell id="F3HwyV3Gs9jkBbudMTh3-2" value="ToDoHeader" style="rounded=1;whiteSpace=wrap;html=1;" vertex="1" parent="1">
          <mxGeometry x="100" y="240" width="120" height="60" as="geometry" />
        </mxCell>
        <mxCell id="F3HwyV3Gs9jkBbudMTh3-6" style="rounded=1;orthogonalLoop=1;jettySize=auto;html=1;exitX=0.5;exitY=0;exitDx=0;exitDy=0;edgeStyle=elbowEdgeStyle;entryX=0.5;entryY=1;entryDx=0;entryDy=0;elbow=vertical;" edge="1" parent="1" source="F3HwyV3Gs9jkBbudMTh3-3" target="F3HwyV3Gs9jkBbudMTh3-1">
          <mxGeometry relative="1" as="geometry" />
        </mxCell>
        <mxCell id="F3HwyV3Gs9jkBbudMTh3-3" value="ToDoOptions" style="rounded=1;whiteSpace=wrap;html=1;" vertex="1" parent="1">
          <mxGeometry x="620" y="240" width="120" height="60" as="geometry" />
        </mxCell>
        <mxCell id="F3HwyV3Gs9jkBbudMTh3-5" style="edgeStyle=orthogonalEdgeStyle;rounded=0;orthogonalLoop=1;jettySize=auto;html=1;exitX=0.5;exitY=0;exitDx=0;exitDy=0;" edge="1" parent="1" source="F3HwyV3Gs9jkBbudMTh3-4" target="F3HwyV3Gs9jkBbudMTh3-1">
          <mxGeometry relative="1" as="geometry" />
        </mxCell>
        <mxCell id="F3HwyV3Gs9jkBbudMTh3-4" value="TaskList" style="rounded=1;whiteSpace=wrap;html=1;" vertex="1" parent="1">
          <mxGeometry x="365" y="240" width="120" height="60" as="geometry" />
        </mxCell>
        <mxCell id="F3HwyV3Gs9jkBbudMTh3-10" style="rounded=0;orthogonalLoop=1;jettySize=auto;html=1;exitX=0.5;exitY=0;exitDx=0;exitDy=0;" edge="1" parent="1" source="F3HwyV3Gs9jkBbudMTh3-9" target="F3HwyV3Gs9jkBbudMTh3-4">
          <mxGeometry relative="1" as="geometry" />
        </mxCell>
        <mxCell id="F3HwyV3Gs9jkBbudMTh3-9" value="TaskRow" style="rounded=1;whiteSpace=wrap;html=1;" vertex="1" parent="1">
          <mxGeometry x="365" y="330" width="120" height="60" as="geometry" />
        </mxCell>
        <mxCell id="F3HwyV3Gs9jkBbudMTh3-12" style="orthogonalLoop=1;jettySize=auto;html=1;exitX=0.5;exitY=0;exitDx=0;exitDy=0;edgeStyle=elbowEdgeStyle;elbow=vertical;rounded=1;" edge="1" parent="1" source="F3HwyV3Gs9jkBbudMTh3-11" target="F3HwyV3Gs9jkBbudMTh3-9">
          <mxGeometry relative="1" as="geometry" />
        </mxCell>
        <mxCell id="F3HwyV3Gs9jkBbudMTh3-11" value="TaskCompletedButton" style="rounded=1;whiteSpace=wrap;html=1;" vertex="1" parent="1">
          <mxGeometry x="500" y="420" width="120" height="60" as="geometry" />
        </mxCell>
        <mxCell id="F3HwyV3Gs9jkBbudMTh3-19" style="edgeStyle=elbowEdgeStyle;orthogonalLoop=1;jettySize=auto;html=1;exitX=0.5;exitY=0;exitDx=0;exitDy=0;elbow=vertical;rounded=1;" edge="1" parent="1" source="F3HwyV3Gs9jkBbudMTh3-13" target="F3HwyV3Gs9jkBbudMTh3-9">
          <mxGeometry relative="1" as="geometry" />
        </mxCell>
        <mxCell id="F3HwyV3Gs9jkBbudMTh3-13" value="TaskDeletionButton" style="rounded=1;whiteSpace=wrap;html=1;" vertex="1" parent="1">
          <mxGeometry x="230" y="420" width="120" height="60" as="geometry" />
        </mxCell>
        <mxCell id="F3HwyV3Gs9jkBbudMTh3-16" style="rounded=1;orthogonalLoop=1;jettySize=auto;html=1;exitX=0.5;exitY=0;exitDx=0;exitDy=0;entryX=0.5;entryY=1;entryDx=0;entryDy=0;edgeStyle=elbowEdgeStyle;elbow=vertical;" edge="1" parent="1" source="F3HwyV3Gs9jkBbudMTh3-15" target="F3HwyV3Gs9jkBbudMTh3-3">
          <mxGeometry relative="1" as="geometry" />
        </mxCell>
        <mxCell id="F3HwyV3Gs9jkBbudMTh3-15" value="TaskDescriptionArea" style="rounded=1;whiteSpace=wrap;html=1;" vertex="1" parent="1">
          <mxGeometry x="690" y="330" width="120" height="60" as="geometry" />
        </mxCell>
        <mxCell id="F3HwyV3Gs9jkBbudMTh3-20" style="edgeStyle=elbowEdgeStyle;rounded=1;orthogonalLoop=1;jettySize=auto;html=1;exitX=0.5;exitY=0;exitDx=0;exitDy=0;elbow=vertical;" edge="1" parent="1" source="F3HwyV3Gs9jkBbudMTh3-17" target="F3HwyV3Gs9jkBbudMTh3-3">
          <mxGeometry relative="1" as="geometry" />
        </mxCell>
        <mxCell id="F3HwyV3Gs9jkBbudMTh3-17" value="AddTaskButton" style="rounded=1;whiteSpace=wrap;html=1;" vertex="1" parent="1">
          <mxGeometry x="560" y="330" width="120" height="60" as="geometry" />
        </mxCell>
        <mxCell id="F3HwyV3Gs9jkBbudMTh3-22" style="edgeStyle=none;rounded=0;orthogonalLoop=1;jettySize=auto;html=1;exitX=0.5;exitY=0;exitDx=0;exitDy=0;" edge="1" parent="1" source="F3HwyV3Gs9jkBbudMTh3-21" target="F3HwyV3Gs9jkBbudMTh3-15">
          <mxGeometry relative="1" as="geometry" />
        </mxCell>
        <mxCell id="F3HwyV3Gs9jkBbudMTh3-21" value="TaskResetButton" style="rounded=1;whiteSpace=wrap;html=1;" vertex="1" parent="1">
          <mxGeometry x="690" y="420" width="120" height="60" as="geometry" />
        </mxCell>
        <mxCell id="F3HwyV3Gs9jkBbudMTh3-24" style="edgeStyle=none;rounded=0;orthogonalLoop=1;jettySize=auto;html=1;exitX=0.5;exitY=0;exitDx=0;exitDy=0;" edge="1" parent="1" source="F3HwyV3Gs9jkBbudMTh3-23" target="F3HwyV3Gs9jkBbudMTh3-9">
          <mxGeometry relative="1" as="geometry" />
        </mxCell>
        <mxCell id="F3HwyV3Gs9jkBbudMTh3-23" value="TaskDescriptionArea" style="rounded=1;whiteSpace=wrap;html=1;" vertex="1" parent="1">
          <mxGeometry x="365" y="420" width="120" height="60" as="geometry" />
        </mxCell>
        <mxCell id="F3HwyV3Gs9jkBbudMTh3-25" value="TaskResetButton" style="rounded=1;whiteSpace=wrap;html=1;" vertex="1" parent="1">
          <mxGeometry x="365" y="510" width="120" height="60" as="geometry" />
        </mxCell>
        <mxCell id="F3HwyV3Gs9jkBbudMTh3-26" style="edgeStyle=none;rounded=0;orthogonalLoop=1;jettySize=auto;html=1;exitX=0.5;exitY=0;exitDx=0;exitDy=0;entryX=0.5;entryY=1;entryDx=0;entryDy=0;" edge="1" parent="1" source="F3HwyV3Gs9jkBbudMTh3-25" target="F3HwyV3Gs9jkBbudMTh3-23">
          <mxGeometry relative="1" as="geometry">
            <mxPoint x="760" y="430" as="sourcePoint" />
            <mxPoint x="760" y="400" as="targetPoint" />
          </mxGeometry>
        </mxCell>
      </root>
    </mxGraphModel>
  </diagram>
</mxfile>
